name processed_emg_signals
nRows=74
nColumns=7
 
endheader
time	LGLTMED	LRF	LADDLONG	LST	LTA	LGM
0.0	0.1984854324294011	0.1429555282733708	0.0200302498946541	0.0104665885741175	0.004173683517346	0.0183996861925614
0.001	0.1804531334629474	0.1496583589946268	0.0234122263449415	0.0085019559054828	0.0019185244346477	0.0197653871307068
0.002	0.1624639793416395	0.1563845025135195	0.0267875482028728	0.0065460079885197	0.0003285743629217	0.0211200285889306
0.003	0.1445277494751551	0.1631290711690109	0.0301541382847095	0.0045998616533421	0.0025663215479679	0.0224624254871245
0.004	0.1266541535888799	0.1698871292263522	0.0335099292812167	0.0026646183283284	0.0047934427413934	0.0237913997429723
0.005	0.1088528201114982	0.1766537002501692	0.036852866770534	0.0007413623699007	0.0070086825666394	0.0251057822747457
0.006	0.091133284820031	0.1834237745690102	0.040180912208795	0.0011688405736163	0.0092108066685332	0.0264044150227585
0.007	0.0735049797672975	0.1901923168078049	0.0434920458906764	0.0030649451598416	0.0113986036911471	0.0276861529861503
0.008	0.0559772225148606	0.1969542734654018	0.0467842698719676	0.004945927907794	0.0135708872093055	0.0289498662718572
0.009000000000000001	0.0385592056925762	0.2037045805154498	0.05005561084632	0.0068107887073168	0.015726497608547	0.0301944421526898
0.01	0.0212599869037553	0.2104381710104591	0.0533041229683655	0.0086585522790582	0.0178643039084768	0.0314187871314783
0.011	0.0040884789928993	0.2171499826706047	0.0565278906153461	0.0104882695819989	0.01998320552461	0.0326218290082691
0.012	0.0129465593088525	0.2238349654399445	0.0597250310799136	0.0122990191656825	0.0220821339639243	0.0338025189476166
0.013000000000000001	0.029836532346967	0.2304880889950809	0.0628936971872309	0.01408990846454	0.0241600544496075	0.0349598335430221
0.014	0.0465730161031451	0.2371043501917037	0.0660320798300823	0.0158600750319264	0.0262159674707279	0.0360927768756862
0.015	0.0631477663407065	0.2436787804366152	0.0691384104162202	0.017608687711544	0.0282489102530212	0.0372003825647178
0.016	0.079552726327086	0.2502064529730242	0.0722109632226468	0.0193349477440544	0.0302579581473806	0.0382817158059794
0.017	0.0957800341269925	0.2566824900674873	0.075248057651435	0.021038089806907	0.0322422259331483	0.0393358753967176
0.018000000000000002	0.1118220294623192	0.2631020700866612	0.0782480603823108	0.022717382985573	0.0342008690338203	0.0403619957432123
0.019	0.1276712601373204	0.2694604344513922	0.0812093874175034	0.0243721316745667	0.0361330846432981	0.0413592488487132
0.02	0.1433204880298738	0.2757528944550776	0.0841305060148054	0.0260016764069159	0.0380381127614481	0.0423268462790829
0.021	0.1587626946516997	0.2819748379327449	0.087009936505672	0.0276053946111257	0.0399152371382532	0.0432640411036887
0.022	0.1739910862822191	0.2881217357671973	0.0898462539951892	0.0291827012949227	0.0417637861263419	0.0441701298091816
0.023	0.1889990986823859	0.2941891482179877	0.0926380899411915	0.0307330496555131	0.0435831334420177	0.0450444541839479
0.024	0.203780401396107	0.3001727310593653	0.0953841336097946	0.0322559316161992	0.045372698835138	0.0458864031710956
0.025	0.2183289016478426	0.3060682415134273	0.0980831334049137	0.0337508782896555	0.0471319486682868	0.046695414688018
0.026000000000000002	0.232638747845443	0.3118715439647712	0.1007338980694851	0.0352174603682168	0.0488603964057571	0.0474709774106573
0.027	0.2467043326974067	0.3175786154446242	0.1033352977566528	0.0366552884418239	0.0505576030129865	0.0482126325207215
0.028	0.2605202959534728	0.3231855508722388	0.1058862649692908	0.0380640132445482	0.0522231772671897	0.0489199754140574
0.029	0.2740815267769715	0.3286885680441259	0.1083857953669088	0.0394433258305116	0.0538567759801128	0.0495926573683938
0.03	0.2873831657567646	0.3340840123631929	0.1108329484394321	0.0407929576804453	0.0554581041338068	0.0502303871685834
0.031	0.3004206065662365	0.3393683613023532	0.1132268480478856	0.0421126807398051	0.0570269149303827	0.0508329326873755
0.032	0.3131894972764814	0.3445382285990658	0.1155666828324747	0.043402307389735	0.0585630097567066	0.0514001224197582
0.033	0.3256857413309586	0.3495903681786298	0.1178517064891191	0.0446616903518645	0.0600662380651313	0.0519318469688682
0.034	0.3379054981890066	0.3545216778036941	0.1200812379156826	0.045890722528161	0.0615364971716092	0.0524280604814475
0.035	0.3498451836460676	0.3593292024474862	0.1222546612300942	0.0470893367768948	0.0629737319727016	0.0528887820308116
0.036000000000000004	0.361501469838757	0.3640101373870653	0.1243714256623034	0.0482575056258575	0.064377934583323	0.0533140969451738
0.037	0.3728712849433064	0.3685618310135728	0.1264310453228824	0.0493952409239872	0.0657491438971735	0.0537041580790669
0.038	0.3839518125759361	0.3729817873561284	0.1284330988506473	0.0505025934324485	0.067087445071873	0.054059187025539
0.039	0.3947404909042301	0.3772676683170798	0.1303772289422644	0.0515796523564137	0.0683929689407393	0.054379475266668
0.04	0.4052350114791165	0.3814172956161659	0.1322631417671281	0.05262654481874	0.0696658913530629	0.0546653852599054
0.041	0.4154333177978817	0.3854286524421717	0.1340906062712127	0.0536434352769219	0.0709064324446018	0.0549173514576413
0.042	0.4253336036091423	0.3892998848110156	0.1358594533745664	0.0546305248847075	0.0721148558400223	0.0551358812573572
0.043000000000000003	0.4349343109706888	0.3930293026300606	0.1375695750671881	0.055588050799863	0.0732914677889652	0.0553215558797293
0.044	0.4442341280706935	0.3966153804700316	0.1392209234087777	0.056516285439617	0.0744366162374325	0.0554750311720751
0.045	0.4532319868219808	0.4000567580474345	0.1408135094377488	0.0574155356853886	0.0755506898363813	0.0555970383346747
0.046	0.46192706023816	0.4033522404217589	0.1423474019952328	0.0582861420386421	0.0766341168895804	0.0556883845676105
0.047	0.4703187595994471	0.4065007979132334	0.1438227264692607	0.0591284777296262	0.0776873642430708	0.0557499536358996
0.048	0.4784067314152311	0.4095015657475772	0.1452396634644879	0.0599429477812118	0.0787109361187911	0.0557827063508436
0.049	0.4861908541899086	0.4123538434345006	0.1465984474025532	0.0607299880298886	0.0797053728951031	0.0557876809655299
0.05	0.4936712349984555	0.415057093887722	0.1478993650582711	0.0614900641061689	0.0806712498371416	0.0557659934824161
0.051000000000000004	0.5008482058787416	0.4176109422938808	0.1491427540369214	0.0622236703766044	0.081609175780093	0.0557188378709816
0.052000000000000005	0.5077223200482499	0.4200151747387747	0.1503290011981069	0.06293132884961	0.082519791768795	0.0556474861933339
0.053	0.5142943479534432	0.4222697365996469	0.1514585410312948	0.063613588047194	0.0834037696573297	0.0555532886356987
0.054	0.5205652731604256	0.4243747307113804	0.1525318539881291	0.0642710218446835	0.0842618106724421	0.0554376734436306
0.055	0.5265362880957758	0.4263304153150076	0.1535494647762804	0.0649042282805265	0.0850946439448794	0.0553021467588381
0.056	0.5322087896468254	0.4281372017959165	0.1545119406189452	0.0655138283382849	0.0859030250127828	0.0551482923555443
0.057	0.5375843746310416	0.4297956522179447	0.155419889484209	0.0661004647030405	0.0866877343013414	0.0549777712743426
0.058	0.5426648351443814	0.4313064766596107	0.1562739582879556	0.0666648004945621	0.0874495755828018	0.0547923213515485
0.059000000000000004	0.5474521537982437	0.4326705303577815	0.1570748310741318	0.0672075179796465	0.0881893744208948	0.054593756642041
0.06	0.5519484988541884	0.4338888106648363	0.1578232271761699	0.067729317266081	0.0889079766034472	0.0543839667335415
0.061	0.5561562192650701	0.4349624538257629	0.1585198993636567	0.0682309149807448	0.0896062465668027	0.0541649159503661
0.062	0.5600778396310613	0.4358927315828161	0.1591656319781592	0.0687130429341815	0.0902850658153957	0.0539386424447288
0.063	0.5637160550788177	0.4366810476166001	0.159761239062383	0.0691764467741241	0.0909453313395392	0.0537072571739605
0.064	0.5670737260719055	0.4373289338331333	0.1603075624865882	0.0696218846301156	0.0915879540343519	0.053472942762303
0.065	0.5701538731598783	0.4378380465071026	0.1608054700760751	0.0700501257515504	0.0922138571225724	0.0532379522463716
0.066	0.5729596716725652	0.438210162290981	0.1612558537436361	0.0704619491413769	0.092823974583967	0.0530046077039534
0.067	0.5754944463654436	0.4384471741009307	0.1616596276305159	0.0708581421877583	0.0934192495939244	0.0527752987662016
0.068	0.5777616660217011	0.438551086889568	0.1620177262595445	0.0712394992958621	0.0940006329738217	0.0525524810138403
0.069	0.5797649380171211	0.4385240133172466	0.1623311027038177	0.0716068205221093	0.094569081655592	0.0523386742581555
0.07	0.5815080028547224	0.4383681693339631	0.1626007267744006	0.0719609102128235	0.0951255571627309	0.0521364607078412
0.07100000000000001	0.5829947286769246	0.438085869684263	0.1628275832303047	0.0723025756494849	0.0956710241098458	0.0519484830228344
0.07200000000000001	0.5842291057634845	0.4376795233483811	0.1630126700140692	0.0726326257022472	0.0962064487226852	0.0517774422565515
0.073	0.5852152410236332	0.4371516289321331	0.1631569965157537	0.0729518694936769	0.096732797380377	0.0516260956882001
